HIERARCHY
ROOT Hips
{
	OFFSET 52.799400 -3.184924 84.430099
	CHANNELS 6 Xposition Yposition Zposition Xrotation Yrotation Zrotation
	JOINT spine
	{
		OFFSET 0.000000 -0.342408 5.954376
		CHANNELS 3 Xrotation Yrotation Zrotation
		JOINT spine1
		{
			OFFSET 0.000000 -0.000001 8.856018
			CHANNELS 3 Xrotation Yrotation Zrotation
			JOINT spine2
			{
				OFFSET 0.000000 -0.000001 8.485672
				CHANNELS 3 Xrotation Yrotation Zrotation
				JOINT Neck
				{
					OFFSET 0.000000 -1.038703 21.786301
					CHANNELS 3 Xrotation Yrotation Zrotation
					JOINT Head
					{
						OFFSET 0.000000 -0.000001 6.582199
						CHANNELS 3 Xrotation Yrotation Zrotation
						End Site
						{
							OFFSET 0.000000 5.254357 15.932602
						}
					}
				}
				JOINT RightShoulder
				{
					OFFSET -3.573071 0.497524 9.163864
					CHANNELS 3 Xrotation Yrotation Zrotation
					JOINT RightArm
					{
						OFFSET 0.000000 -0.000002 12.019196
						CHANNELS 3 Xrotation Yrotation Zrotation
						JOINT RightArmRoll
						{
							OFFSET 0.000000 -0.000001 6.067551
							CHANNELS 3 Xrotation Yrotation Zrotation
							JOINT RightForeArm
							{
								OFFSET 0.000000 -0.000003 17.672607
								CHANNELS 3 Xrotation Yrotation Zrotation
								JOINT RightForeArmRoll
								{
									OFFSET 0.000000 -0.000001 6.808716
									CHANNELS 3 Xrotation Yrotation Zrotation
									JOINT RightHand
									{
										OFFSET 0.000000 -0.000002 13.663605
										CHANNELS 3 Xrotation Yrotation Zrotation
										End Site
										{
											OFFSET 0.000000 0.000000 0.100006
										}
									}
								}
							}
						}
					}
				}
				JOINT LeftShoulder
				{
					OFFSET 3.573071 0.497524 9.163864
					CHANNELS 3 Xrotation Yrotation Zrotation
					JOINT LeftArm
					{
						OFFSET 0.000000 -0.000002 12.019196
						CHANNELS 3 Xrotation Yrotation Zrotation
						JOINT LeftArmRoll
						{
							OFFSET 0.000000 -0.000001 6.067535
							CHANNELS 3 Xrotation Yrotation Zrotation
							JOINT LeftForeArm
							{
								OFFSET 0.000000 -0.000003 17.672592
								CHANNELS 3 Xrotation Yrotation Zrotation
								JOINT LeftForeArmRoll
								{
									OFFSET 0.000000 -0.000001 6.808716
									CHANNELS 3 Xrotation Yrotation Zrotation
									JOINT LeftHand
									{
										OFFSET 0.000000 -0.000002 13.663605
										CHANNELS 3 Xrotation Yrotation Zrotation
										End Site
										{
											OFFSET 0.000000 0.000000 0.100006
										}
									}
								}
							}
						}
					}
				}
			}
		}
	}
	JOINT RightUpLeg
	{
		OFFSET -5.277740 0.811858 -0.967796
		CHANNELS 3 Xrotation Yrotation Zrotation
		JOINT RightUpLegRoll
		{
			OFFSET 0.000000 -0.000003 16.021400
			CHANNELS 3 Xrotation Yrotation Zrotation
			JOINT RightLeg
			{
				OFFSET 0.000000 0.000003 -19.840103
				CHANNELS 3 Xrotation Yrotation Zrotation
				JOINT RightLegRoll
				{
					OFFSET 0.000000 -0.000003 19.904999
					CHANNELS 3 Xrotation Yrotation Zrotation
					JOINT RightFoot
					{
						OFFSET 0.000000 -0.000003 16.567497
						CHANNELS 3 Xrotation Yrotation Zrotation
						JOINT RightToeBase
						{
							OFFSET 0.000000 -0.000002 13.849602
							CHANNELS 3 Xrotation Yrotation Zrotation
							End Site
							{
								OFFSET 0.005871 0.773116 6.707275
							}
						}
					}
				}
			}
		}
	}
	JOINT LeftUpLeg
	{
		OFFSET 5.277740 0.811858 -0.967796
		CHANNELS 3 Xrotation Yrotation Zrotation
		JOINT LeftUpLegRoll
		{
			OFFSET 0.000000 -0.000003 16.021500
			CHANNELS 3 Xrotation Yrotation Zrotation
			JOINT LeftLeg
			{
				OFFSET 0.000000 -0.000003 19.840004
				CHANNELS 3 Xrotation Yrotation Zrotation
				JOINT LeftLegRoll
				{
					OFFSET 0.000000 -0.000003 20.089005
					CHANNELS 3 Xrotation Yrotation Zrotation
					JOINT LeftFoot
					{
						OFFSET 0.000000 -0.000003 16.383499
						CHANNELS 3 Xrotation Yrotation Zrotation
						JOINT LeftToeBase
						{
							OFFSET 0.000000 -0.000002 13.849594
							CHANNELS 3 Xrotation Yrotation Zrotation
							End Site
							{
								OFFSET -0.026310 0.773116 6.707275
							}
						}
					}
				}
			}
		}
	}
}
MOTION
Frames: 9
Frame Time: 0.041667
52.395199 -2.587996 84.322990 -5.800998 1.353983 0.557754 -1.412171 -0.067534 0.005761 1.178473 -0.134289 0.011785 2.823547 -0.134131 0.012659 5.314211 -2.354886 1.901812 10.068361 -4.951606 3.230061 -13.659484 -21.143677 -14.441829 -320.473897 -32.881555 -283.197265 0.000000 0.000000 -0.000000 67.366825 2.646570 -4.334127 0.000000 0.000009 -2.999999 -5.000183 -7.999909 0.000016 -10.958216 30.233344 11.073577 -850.408330 175.759810 819.705592 0.000000 -0.000001 0.000002 43.961092 -3.304132 3.672935 0.000005 -0.000002 3.000010 -5.000142 7.999910 -0.000001 -0.323583 -181.904999 1.551467 -179.999991 0.000005 -1.141005 168.838629 -1.816018 -0.569238 -0.000001 -0.000003 0.205446 70.801338 6.850292 2.100000 25.456952 -7.355614 0.000011 -0.631065 177.002180 -1.777664 -0.000004 -0.000004 -1.102610 -12.554852 2.996922 0.668872 0.000002 -0.000003 -0.201756 71.211819 -6.819365 -2.166215 25.456952 7.355612 0.000000 
52.376801 -2.592824 84.326698 -5.785466 1.368835 0.550086 -1.405731 -0.064050 0.005876 1.191373 -0.127582 0.011920 2.836446 -0.127423 0.012889 5.277671 -2.448190 1.885239 10.044082 -4.919749 3.225360 -13.641706 -21.008919 -14.408904 -320.794806 -32.530968 -283.093009 -0.000002 0.000001 0.000002 67.649206 2.637066 -4.340265 0.000000 0.000007 -3.000000 -5.000184 -7.999905 0.000018 -10.900830 29.906144 10.968065 -850.924037 175.953336 819.634722 -0.000003 -0.000001 -0.000001 44.196952 -3.298980 3.680930 0.000004 -0.000005 3.000010 -5.000144 7.999913 -0.000001 -0.324708 -181.929001 1.535711 -179.999991 0.000005 -1.141005 168.867971 -1.812273 -0.567536 -0.000001 -0.000003 0.204473 70.790505 6.850373 2.100483 25.456959 -7.355614 0.000011 -0.647885 176.978193 -1.790544 -0.000005 -0.000004 -1.101910 -12.559414 3.001818 0.669390 0.000002 -0.000003 -0.202095 71.218260 -6.819190 -2.166191 25.456952 7.355613 -0.000000 
52.389999 -2.595715 84.323891 -5.770249 1.383228 0.542864 -1.399461 -0.061054 0.005996 1.203893 -0.121829 0.012062 2.848967 -0.121668 0.013139 5.242572 -2.534298 1.868971 10.020742 -4.890287 3.220160 -13.625005 -20.873002 -14.377342 -321.108749 -32.180549 -282.985037 -0.000002 -0.000002 -0.000001 67.926791 2.627694 -4.346267 -0.000001 0.000009 -3.000002 -5.000183 -7.999905 0.000016 -10.852897 29.596671 10.877201 -851.435864 176.159608 819.556912 -0.000002 0.000003 0.000002 44.436726 -3.293685 3.689019 0.000005 -0.000005 3.000010 -5.000142 7.999906 -0.000002 -0.327619 -181.951991 1.520910 -179.999991 0.000005 -1.141005 168.893189 -1.810473 -0.566354 -0.000001 -0.000003 0.203623 70.781599 6.850494 2.100850 25.456953 -7.355614 0.000012 -0.664258 176.956200 -1.802736 -0.000005 -0.000004 -1.101260 -12.563873 3.006296 0.669872 0.000002 -0.000003 -0.202413 71.225103 -6.818914 -2.166327 25.456952 7.355614 -0.000001 
52.386997 -2.595855 84.321594 -5.755337 1.397115 0.536076 -1.393432 -0.058670 0.006124 1.215953 -0.117256 0.012220 2.861027 -0.117091 0.013416 5.208593 -2.611337 1.853151 9.999019 -4.864175 3.214395 -13.610193 -20.733010 -14.347794 -321.412610 -31.831619 -282.873432 -0.000002 -0.000001 -0.000000 68.199678 2.618485 -4.352188 -0.000000 0.000009 -3.000001 -5.000184 -7.999910 0.000016 -10.816356 29.307754 10.803892 -851.941516 176.382860 819.471726 -0.000004 0.000000 -0.000000 44.679215 -3.288296 3.697157 0.000004 -0.000004 3.000010 -5.000140 7.999910 -0.000002 -0.332616 -181.973998 1.507178 -179.999991 0.000005 -1.141005 168.913501 -1.808628 -0.565326 -0.000001 -0.000003 0.202915 70.774823 6.850591 2.101287 25.456952 -7.355614 0.000010 -0.680174 176.934220 -1.814111 -0.000005 -0.000004 -1.100650 -12.568126 3.010297 0.670305 0.000002 -0.000003 -0.202705 71.232179 -6.818701 -2.166357 25.456948 7.355613 -0.000001 
52.374100 -2.595845 84.323982 -5.740756 1.410463 0.529715 -1.387684 -0.057021 0.006265 1.227462 -0.114088 0.012404 2.872526 -0.113920 0.013731 5.175415 -2.677426 1.837907 9.979690 -4.842388 3.208047 -13.597756 -20.586173 -14.320832 -321.703413 -31.486089 -282.757974 0.000000 -0.000000 -0.000000 68.468173 2.609412 -4.358014 -0.000000 0.000008 -3.000001 -5.000183 -7.999909 0.000015 -10.793125 29.042326 10.751029 -852.438863 176.627244 819.378726 0.000001 -0.000001 -0.000000 44.923295 -3.282799 3.705285 0.000006 -0.000005 3.000011 -5.000142 7.999903 -0.000001 -0.339998 -181.994994 1.494606 -179.999991 0.000005 -1.141005 168.928323 -1.807740 -0.563670 -0.000001 -0.000003 0.202369 70.770493 6.850697 2.101669 25.456952 -7.355614 0.000010 -0.695627 176.914235 -1.824601 -0.000005 -0.000004 -1.100100 -12.572275 3.013763 0.670687 0.000002 -0.000003 -0.202963 71.239563 -6.818480 -2.166371 25.456950 7.355613 0.000000 
52.361401 -2.599185 84.327003 -5.726514 1.423245 0.523769 -1.382254 -0.056229 0.006422 1.238323 -0.112554 0.012620 2.883396 -0.112382 0.014091 5.142695 -2.730710 1.823385 9.963509 -4.825890 3.201071 -13.588410 -20.429494 -14.297062 -321.978341 -31.145307 -282.639020 -0.000003 -0.000001 -0.000002 68.732371 2.600487 -4.363772 0.000000 0.000008 -3.000001 -5.000182 -7.999907 0.000016 -10.785125 28.803236 10.721496 -852.925665 176.896927 819.277311 -0.000002 0.000001 0.000002 45.167580 -3.277241 3.713357 0.000005 -0.000008 3.000012 -5.000144 7.999910 -0.000001 -0.350062 -182.014979 1.483329 -179.999991 0.000005 -1.139995 168.937120 -1.807795 -0.563392 -0.000001 -0.000003 0.202005 70.768840 6.850820 2.101993 25.456955 -7.355614 0.000010 -0.710611 176.894236 -1.834097 -0.000004 -0.000004 -1.099620 -12.576213 3.016636 0.671006 0.000002 -0.000003 -0.203180 71.247377 -6.818258 -2.166354 25.456953 7.355612 -0.000000 
52.361500 -2.603516 84.312592 -5.712278 1.435191 0.518416 -1.377164 -0.056193 0.006589 1.248503 -0.112483 0.012857 2.893566 -0.112307 0.014488 5.109949 -2.772774 1.809480 9.950676 -4.813281 3.193405 -13.580746 -20.272302 -14.275246 -322.243790 -30.799994 -282.514301 0.000000 0.000001 0.000001 68.989275 2.591796 -4.369368 0.000001 0.000008 -3.000000 -5.000186 -7.999906 0.000017 -10.790721 28.589623 10.713142 -853.414597 177.185612 819.169394 -0.000001 0.000002 0.000001 45.414563 -3.271588 3.721488 0.000006 -0.000010 3.000011 -5.000142 7.999909 -0.000002 -0.364120 -182.032983 1.473717 -179.999991 0.000005 -1.139994 168.937913 -1.809757 -0.563750 -0.000001 -0.000003 0.201866 70.770882 6.850897 2.102379 25.456955 -7.355615 0.000011 -0.725432 176.877243 -1.842319 -0.000004 -0.000004 -1.099200 -12.580045 3.018816 0.671263 0.000002 -0.000003 -0.203367 71.255935 -6.817994 -2.166489 25.456953 7.355612 -0.000000 
52.356300 -2.604885 84.314102 -5.697823 1.446143 0.513795 -1.372381 -0.056696 0.006759 1.258063 -0.113491 0.013095 2.903136 -0.113311 0.014906 5.077198 -2.806971 1.795998 9.940527 -4.802415 3.185051 -13.573205 -20.124893 -14.253920 -322.508501 -30.441415 -282.382778 -0.000002 0.000001 0.000001 69.236350 2.583415 -4.374714 -0.000001 0.000005 -3.000002 -5.000184 -7.999909 0.000017 -10.806361 28.397813 10.720882 -853.917954 177.483599 819.056396 -0.000004 0.000001 0.000001 45.667563 -3.265797 3.729850 0.000003 -0.000004 3.000010 -5.000144 7.999906 -0.000002 -0.382785 -182.048966 1.465966 -179.999991 0.000005 -1.139994 168.929990 -1.812658 -0.563580 -0.000001 -0.000003 0.201962 70.776893 6.851028 2.102731 25.456957 -7.355614 0.000010 -0.740322 176.860263 -1.849069 -0.000004 -0.000004 -1.098820 -12.583567 3.020288 0.671449 0.000002 -0.000003 -0.203535 71.265238 -6.817756 -2.166480 25.456952 7.355612 0.000000 
52.354599 -2.600948 84.327003 -5.683252 1.456250 0.509846 -1.367861 -0.057689 0.006931 1.267092 -0.115477 0.013335 2.912167 -0.115295 0.015344 5.044867 -2.834037 1.782909 9.932413 -4.793145 3.176063 -13.565627 -19.985525 -14.232975 -322.772419 -30.072432 -282.245710 -0.000001 -0.000000 -0.000001 69.474806 2.575293 -4.379831 0.000001 0.000009 -3.000003 -5.000185 -7.999907 0.000015 -10.830976 28.225912 10.743071 -854.432350 177.790043 818.938479 -0.000001 0.000000 0.000002 45.926284 -3.259860 3.738404 0.000004 -0.000005 3.000010 -5.000145 7.999912 -0.000002 -0.405321 -182.063965 1.459818 -179.999991 0.000005 -1.139995 168.914458 -1.816490 -0.564840 -0.000001 -0.000003 0.202261 70.786400 6.851142 2.102965 25.456955 -7.355613 0.000010 -0.755166 176.846274 -1.854612 -0.000004 -0.000004 -1.098500 -12.586880 3.021156 0.671583 0.000002 -0.000003 -0.203688 71.275285 -6.817505 -2.166423 25.456955 7.355613 -0.000000 
